<svg width="151" height="24" fill="none" xmlns="http://www.w3.org/2000/svg"><path fill-rule="evenodd" clip-rule="evenodd" d="M47.51 6.09v1.446l-.78 1.756.586.293.543-1.289c.618-1.074 1.855-2.442 4.218-2.442.366 0 .628.026.863.078v3.244c-.47-.052-.941-.078-1.412-.078-2.747 0-3.95 1.334-3.95 4.526v5.494h-3.166V6.089h3.099zM100.658 6.09v1.446l-.78 1.756.585.293.543-1.289c.618-1.074 1.855-2.442 4.219-2.442.366 0 .627.026.863.078v3.244a12.789 12.789 0 00-1.413-.078c-2.747 0-3.95 1.334-3.95 4.526v5.494H97.56V6.089h3.098z" fill="#232D42"/><path d="M71.427 18.969l1.636-2.623c.935-1.375 1.155-1.58 1.181-2.877h.661c0 1.323.572 1.814 1.13 2.93l1.415 2.57h3.843l-4.881-6.642 4.57-6.278h-3.48l-.986 1.453c-.987 1.427-1.546 2.438-1.546 3.71h-.66c0-1.298-.742-2.595-1.494-3.71l-.792-1.453h-3.79L72.75 12.3 68 18.97h3.427zM111.706 19.33c2.259 0 3.7-1.4 4.194-3.087l.196-.73h.335v.73c.025 1.972.935 2.698 3.064 2.698h1.324v-2.49h-1.194c-.675 0-.779-.156-.779-.779v-5.215c0-3.165-1.947-4.825-5.504-4.825-3.635 0-5.66 1.894-5.946 3.814l2.882.752c.312-1.142 1.143-2.18 3.064-2.18 1.661 0 2.362.779 2.362 2.05v.441c-4.231.39-8.126 1.505-8.126 5.111 0 2.283 1.688 3.71 4.128 3.71zm1.039-2.387c-1.298 0-1.947-.622-1.947-1.608 0-1.868 2.258-2.465 4.906-2.75v1.037c0 2.31-1.454 3.321-2.959 3.321zM150.982 18.941l-6.153-7.705 5.478-5.215h-3.973l-6.542 6.434-.519-.544c1.143-.986 1.272-1.082 1.272-3.136V.781h-3.142v18.16h3.142v-3.632l2.077-1.972 4.361 5.604h3.999zM30.912 19.094V12.37h4.473c3.898 0 6.41-2.328 6.41-5.834 0-3.48-2.512-5.755-6.41-5.755h-7.874v18.313h3.4zm0-15.383h3.845c2.198 0 3.48 1.098 3.48 2.825 0 1.805-1.309 2.956-3.48 2.956h-3.845V3.711zM128.718 19.472c3.034 0 5.232-1.675 6.173-4.16l-3.008-1.046c-.523 1.57-1.465 2.616-3.218 2.616-1.857 0-3.401-1.413-3.401-4.343 0-2.878 1.518-4.29 3.375-4.29 1.544 0 2.564.941 3.035 2.354l2.956-1.073c-.759-2.145-2.826-3.872-5.886-3.872-3.82 0-6.723 2.747-6.723 6.88 0 4.213 2.773 6.934 6.697 6.934zM60.64 19.472c3.793 0 6.566-2.773 6.566-6.907 0-4.081-2.747-6.907-6.567-6.907-3.82 0-6.592 2.826-6.592 6.907 0 3.977 2.799 6.907 6.592 6.907zm0-2.59c-1.937 0-3.27-1.387-3.27-4.265 0-2.904 1.333-4.369 3.27-4.369 1.909 0 3.243 1.465 3.243 4.37 0 2.877-1.334 4.264-3.244 4.264zM89.893 11.963c-.494 1.53-.6 2.178-.627 4.046h-.631c-.026-1.556-.104-2.49-.78-4.02l-2.752-5.968h-3.479l6.023 12.868-.39 1.168c-.389 1.037-.804 1.323-1.739 1.323h-3.037V24h3.375c2.259 0 3.297-.908 4.05-3.087l5.27-14.892H91.88l-1.986 5.942z" fill="#232D42"/><path fill-rule="evenodd" clip-rule="evenodd" d="M8.538 4.433h4.446c.205 0 .4.08.546.224l.004.003.432.432a.776.776 0 01.227.549v2.903a.776.776 0 01-.227.55l-.432.432-.004.003a.776.776 0 01-.545.224H5.655a.776.776 0 00-.776.775v2.893a.776.776 0 01-.227.549l-.433.432-.003.003a.777.777 0 01-.546.224H.776a.776.776 0 00-.776.776v2.881c0 .429.348.776.776.776H3.66a.776.776 0 00.776-.776v-2.892c0-.206.082-.403.228-.549l.432-.432.003-.003a.777.777 0 01.546-.224h7.33a.776.776 0 00.776-.776v-2.882-.011c0-.205.082-.403.227-.548l.433-.432.003-.004a.777.777 0 01.546-.224H17.852a.783.783 0 00.165-.017.776.776 0 00.61-.758V5.652a.776.776 0 00-.775-.776h-2.894c-.205 0-.4-.08-.546-.223l-.003-.004-.433-.432a.775.775 0 01-.227-.549V.776A.776.776 0 0012.974 0H5.655a.776.776 0 00-.776.776v2.892a.776.776 0 01-.226.547l-.001.002-.433.432a.776.776 0 01-.549.227H.776A.776.776 0 000 5.652v2.882c0 .428.348.775.776.775H3.66a.776.776 0 00.776-.775V5.64c0-.205.082-.401.226-.547l.002-.002.432-.432a.776.776 0 01.55-.227h2.893z" fill="#4A28C6"/></svg>
